<svg id="Layer_1" data-name="Layer 1" xmlns="http://www.w3.org/2000/svg" viewBox="0 0 575.52 288.9"><defs><style>.cls-1{fill:#250c77;}.cls-1,.cls-2{stroke:#000;isolation:isolate;}.cls-2{fill:#ed642b;stroke-miterlimit:10;}</style></defs><path class="cls-1" d="M159.47,210a58,58,0,1,1,56.32-71.59h87c-6.9-73-68.53-130.31-143.31-130.31C80.1,8.05,15.52,72.63,15.52,152s64.58,144,144,144c74.33,0,135.67-56.62,143.18-129H215.46A58.05,58.05,0,0,1,159.47,210Z" transform="translate(-15.02 -7.55)"/><path class="cls-2" d="M446.09,8.05A144,144,0,0,0,303.44,132.6q-.39,2.86-.66,5.76h87a58,58,0,1,1,.35,28.6H302.91c7.51,72.37,68.85,129,143.18,129,79.37,0,144-64.58,144-143.95S525.46,8.05,446.09,8.05Z" transform="translate(-15.02 -7.55)"/></svg>